<?xml version="1.0" standalone="no"?><!DOCTYPE svg PUBLIC "-//W3C//DTD SVG 1.1//EN" "http://www.w3.org/Graphics/SVG/1.1/DTD/svg11.dtd"><svg t="1678796624869" class="icon" viewBox="0 0 1024 1024" version="1.1" xmlns="http://www.w3.org/2000/svg" p-id="23940" xmlns:xlink="http://www.w3.org/1999/xlink" width="200" height="200"><path d="M924.30848 712.61184a27.93472 27.93472 0 0 1-15.8208-4.8896c-51.48672-35.11808-106.12224-157.21984-135.96672-303.84128-29.78816-146.38592-46.74048-146.38592-77.51168-146.38592-38.26176 0-46.78144 72.45824-47.104 75.54048-24.18176 206.02368-121.216 339.13856-125.33248 344.71424a28.032 28.032 0 0 1-45.17888-33.19808c1.24928-1.71008 92.4416-127.81056 114.74432-317.85984 6.4256-57.64096 37.248-125.14816 102.912-125.14816 79.4624 0 103.79776 50.0992 132.51584 191.21664 31.29344 153.74336 84.7104 249.73312 112.64 268.8a27.97056 27.97056 0 0 1-15.8976 51.05152z" fill="#FD9A16" p-id="23941"></path><path d="M268.4928 683.008a28.09856 28.09856 0 0 0 39.24992-5.9136c4.1216-5.56544 101.1712-138.8032 125.35808-345.00096 0.34304-3.072 8.86272-75.60704 47.13472-75.60704 30.78144 0 47.73376 0 77.53216 146.51392 29.8496 146.74944 84.48 268.95872 136.00256 304.128a28.02176 28.02176 0 1 0 31.70304-46.21824c-27.95008-19.07712-81.3824-115.1488-112.68608-269.02016-28.7232-141.24032-53.0688-191.3856-132.55168-191.3856-65.65888 0-96.49152 67.584-102.912 125.25568-22.31296 190.208-113.52576 316.416-114.77504 318.12608a27.9552 27.9552 0 0 0 5.94432 39.12192z m674.19136 125.39392l-77.5936-75.45344A28.032 28.032 0 1 0 826.0096 773.12l40.5248 39.20896H245.00224a32.6656 32.6656 0 0 1-32.6656-32.5888V177.152l27.42272 32.768a28.04224 28.04224 0 0 0 43.09504-35.88608l-61.9008-73.96864-1.536-1.37728a46.2592 46.2592 0 0 0-58.88-2.01216L84.84352 174.08a28.03712 28.03712 0 0 0 40.30464 38.9888l31.04768-31.93856V779.776a88.80128 88.80128 0 0 0 88.8064 88.576h607.1296l-22.97344 19.12832a28.02688 28.02688 0 0 0 35.97824 43.008l74.15808-61.75232 1.39776-1.56672a46.00832 46.00832 0 0 0 1.99168-58.78272z" fill="#2966C1" p-id="23942"></path></svg>