<?xml version="1.0" standalone="no"?><!DOCTYPE svg PUBLIC "-//W3C//DTD SVG 1.1//EN" "http://www.w3.org/Graphics/SVG/1.1/DTD/svg11.dtd"><svg t="1678797807607" class="icon" viewBox="0 0 1024 1024" version="1.1" xmlns="http://www.w3.org/2000/svg" p-id="40081" data-spm-anchor-id="a313x.7781069.0.i51" xmlns:xlink="http://www.w3.org/1999/xlink" width="200" height="200"><path d="M512 57.677643C226.24721 57.677643 57.677643 226.238336 57.677643 511.991127S226.24721 966.322357 512 966.322357c285.743917 0 454.322357-168.57844 454.322357-454.33123S797.743917 57.677643 512 57.677643z" fill="#7dc5eb" p-id="40082" data-spm-anchor-id="a313x.7781069.0.i45" class=""></path><path d="M552.401858 329.369511c-78.418523 0-145.329026 50.301116-171.448125 121.016569-65.026662 2.725934-116.939203 58.274828-116.939203 126.395674 0 69.868922 54.596769 126.498607 121.945623 126.500381v0.00355h165.309448a160.364256 160.364256 0 0 0 2.263626 0h182.039515c0.30436 0.002662 0.608721 0.004437 0.913969 0.004436 57.606655 0 104.307799-46.701144 104.307799-104.307799 0-57.597782-46.701144-104.298925-104.307799-104.298925-0.711653 0-1.422419 0.007099-2.129636 0.021296-10.50088-93.067757-87.961955-165.335182-181.955217-165.335182z" fill="#000000" opacity=".2" p-id="40083"></path><path d="M511.111764 307.909879c-78.418523 0-145.329026 50.301116-171.448124 121.016568C274.63609 431.652381 222.724437 487.201276 222.724437 555.322121c0 69.868922 54.596769 126.498607 121.945622 126.500382v0.003549h165.309449a160.364256 160.364256 0 0 0 2.263625 0h182.038628c0.305248 0.002662 0.609608 0.004437 0.914856 0.004437 57.606655 0 104.307799-46.701144 104.307799-104.307799 0-57.597782-46.701144-104.298925-104.307799-104.298926-0.711653 0-1.422419 0.007099-2.130523 0.021297C682.566101 380.177303 605.105026 307.909879 511.111764 307.909879z" fill="#ffffff" p-id="40084" data-spm-anchor-id="a313x.7781069.0.i46" class=""></path><path d="M592.005102 467.888139l-5.976291-5.975404a9.589574 9.589574 0 0 0-0.864277-0.991168l-34.251647-34.251647a9.672097 9.672097 0 0 0-13.678475 0l-6.863639 6.862752a9.672097 9.672097 0 0 0 0 13.678475l6.08721 6.08721h-65.851009a9.672097 9.672097 0 0 0-9.672097 9.672097l-0.003549 19.379688h0.003549v53.332298a9.672097 9.672097 0 0 0 9.672097 9.672097h9.704929a9.672097 9.672097 0 0 0 9.672097-9.672097l0.001775-53.331411h46.470433l-6.085435 6.085435a9.672097 9.672097 0 0 0 0 13.678475l6.863639 6.862753a9.672097 9.672097 0 0 0 13.678475 0l41.092215-41.089553z m-2.83419 47.266384a9.672097 9.672097 0 0 1 2.832416 6.839682l0.002662 58.112443h-0.002662v14.598655a9.672097 9.672097 0 0 1-9.672097 9.672097l-65.850122 0.001775 6.085435 6.086322a9.67121 9.67121 0 0 1 0 13.678475l-6.862752 6.862752a9.672097 9.672097 0 0 1-13.678475 0l-34.251646-34.251646a9.716464 9.716464 0 0 1-0.858953-0.983182l-5.980728-5.981615 41.091327-41.091328a9.672097 9.672097 0 0 1 13.678475 0l6.862752 6.862752a9.672097 9.672097 0 0 1 0 13.678475l-6.08721 6.08721h46.474871v-53.333185a9.672097 9.672097 0 0 1 9.672097-9.672098h9.704929c2.564437 0 5.025941 1.018676 6.839681 2.832416z" fill="#000000" opacity=".2" p-id="40085"></path><path d="M569.475328 454.371161l-5.976292-5.976291a9.589574 9.589574 0 0 0-0.864277-0.991168l-34.251646-34.251647a9.672097 9.672097 0 0 0-13.678475 0l-6.862752 6.86364a9.672097 9.672097 0 0 0 0 13.677587l6.087209 6.08721h-65.851896a9.672097 9.672097 0 0 0-9.672097 9.672097l-0.002662 19.379688h0.002662v53.332298a9.672097 9.672097 0 0 0 9.672097 9.672097H457.783016a9.672097 9.672097 0 0 0 9.672097-9.672097l0.001774-53.33141h46.470434l-6.085435 6.085435a9.672097 9.672097 0 0 0 0 13.678475l6.862752 6.862752a9.672097 9.672097 0 0 0 13.678475 0l41.093102-41.088666z m-2.834191 47.265498a9.672097 9.672097 0 0 1 2.832416 6.839681l0.002662 58.112443h-0.002662v14.598655a9.672097 9.672097 0 0 1-9.672097 9.672098l-65.850122 0.001774 6.086323 6.086323a9.67121 9.67121 0 0 1 0 13.678474l-6.86364 6.862753a9.672097 9.672097 0 0 1-13.677587 0l-34.251647-34.251647a9.716464 9.716464 0 0 1-0.858953-0.983182l-5.980728-5.981615 41.091328-41.091328a9.672097 9.672097 0 0 1 13.677587 0l6.86364 6.862753a9.672097 9.672097 0 0 1 0 13.678474l-6.08721 6.08721h46.473983v-53.333185a9.672097 9.672097 0 0 1 9.672097-9.672097h9.704929c2.565324 0 5.025941 1.018676 6.839681 2.832416z" fill="#e8989a" p-id="40086" data-spm-anchor-id="a313x.7781069.0.i50" class="selected"></path></svg>