<?xml version="1.0" standalone="no"?><!DOCTYPE svg PUBLIC "-//W3C//DTD SVG 1.1//EN" "http://www.w3.org/Graphics/SVG/1.1/DTD/svg11.dtd"><svg t="1678798127188" class="icon" viewBox="0 0 1024 1024" version="1.1" xmlns="http://www.w3.org/2000/svg" p-id="45721" xmlns:xlink="http://www.w3.org/1999/xlink" width="200" height="200"><path d="M518.153846 870.897231c-64.123077 0-126.892308-19.076923-181.169231-55.753846-72-48.615385-120.861538-122.338462-137.353846-207.63077-11.815385-60.8-6.153846-123.2 16.246154-180.553846 21.907692-55.876923 58.584615-104.492308 106.215385-140.676923 6.523077-4.923077 15.753846-3.692308 20.676923 2.830769s3.692308 15.753846-2.830769 20.676923c-43.323077 32.984615-76.676923 77.169231-96.615385 128-20.430769 52.184615-25.6 108.923077-14.769231 164.184616 15.138462 77.538462 59.446154 144.615385 124.923077 188.8 65.476923 44.184615 144.246154 60.184615 221.784615 45.169231 77.538462-15.015385 144.615385-59.446154 188.676924-124.923077C808.123077 645.297231 824.123077 566.528 809.107692 488.989538c-15.138462-77.538462-59.446154-144.615385-124.923077-188.8-65.476923-44.184615-144.246154-60.184615-221.784615-45.16923-8 1.6-15.753846-3.692308-17.353846-11.692308-1.6-8 3.692308-15.753846 11.692308-17.353846 85.292308-16.615385 171.938462 1.107692 243.938461 49.723077s120.861538 122.338462 137.353846 207.630769-0.984615 171.938462-49.6 244.061538c-48.615385 72-122.338462 120.861538-207.630769 137.476924-20.8 3.938462-41.846154 6.030769-62.646154 6.030769z" fill="#1C1B55" p-id="45722"></path><path d="M518.153846 548.066462m-297.846154 0a297.846154 297.846154 0 1 0 595.692308 0 297.846154 297.846154 0 1 0-595.692308 0Z" fill="#80CFF5" p-id="45723"></path><path d="M470.646154 248.989538c-72.615385 12.553846-140.8 51.692308-188.676923 115.323077-99.938462 132.676923-73.353846 321.107692 59.323077 421.169231 79.507692 59.938462 179.076923 74.461538 267.56923 47.876923-79.015385 13.661538-163.323077-4.061538-232.492307-56.123077C243.692308 677.174154 217.107692 488.620308 317.046154 356.066462c40.123077-53.169231 94.4-89.353846 153.6-107.076924z" fill="#D4F1FF" p-id="45724"></path><path d="M766.412308 294.125538c25.778462-9.979077 45.282462-33.500308 48.867692-62.695384 5.204923-42.390154-25.014154-81.068308-67.526154-86.289231-28.462769-3.494154-55.150769 8.852923-71.271384 30.061539 40.992 29.710769 72.468923 71.271385 89.931076 118.923076z" fill="#FFF7A6" p-id="45725"></path><path d="M757.771077 328.157538c-2.107077-0.011077-4.168615-0.387692-6.033231-1.36123-3.636923-1.686154-6.375385-4.627692-7.773538-8.393846l-5.206154-14.156308c-15.511385-42.328615-43.037538-78.692923-79.596308-105.129846l-12.185846-8.812308c-3.180308-2.375385-5.356308-5.865846-5.990154-9.787077s0.470154-7.878154 2.845539-11.058461l9.163077-12.019693c22.940308-30.291692 60.733538-46.235077 98.48123-41.6 28.340923 3.479385 53.744 17.758769 71.318154 40.252308 17.575385 22.494769 25.421538 50.489846 21.926154 78.953846-4.8 39.090462-30.708923 72.365538-67.438769 86.704l-14.062769 5.464615c-1.800615 0.523077-3.707077 0.909538-5.447385 0.944z m14.014769-20.227692zM676.482462 175.204923c41.329231 29.997538 72.377846 71.010462 89.931076 118.921846 26.691692-10.363077 45.385846-34.354462 48.866462-62.695384 2.519385-20.523077-3.172923-40.814769-15.926154-57.136-12.628923-16.307692-31.076923-26.633846-51.6-29.152-27.363692-3.36-54.695385 8.163692-71.271384 30.060307z" fill="#1C1B55" p-id="45726"></path><path d="M700.8 173.666462l32 39.015384c5.784615 0.246154 10.707692-5.415385 15.015385-17.107692 6.4-17.476923-1.969231-31.753846-7.015385-33.723077-3.446154-1.353846-16.738462 2.584615-40 11.815385z" fill="#FFFFFF" p-id="45727"></path><path d="M723.023731 506.192907a207.507692 207.384615 78.998 1 0-407.145989 79.155912 207.507692 207.384615 78.998 1 0 407.145989-79.155912Z" fill="#FFFFFF" p-id="45728"></path><path d="M518.953846 782.912c-46.754462 0.061538-92.467692-13.873231-132.029538-40.662154-52.525538-35.428923-88.032-89.085538-100.125539-151.305846-12.071385-62.099692 0.726154-125.271385 36.153846-177.796923 35.428923-52.524308 89.086769-88.030769 151.185231-100.100923 62.099692-12.071385 125.271385 0.726154 177.675077 36.177231 52.525538 35.428923 88.032 89.085538 100.125539 151.305846 12.071385 62.099692-0.726154 125.271385-36.153847 177.796923-35.428923 52.524308-89.085538 88.030769-151.18523 100.100923a225.234462 225.234462 0 0 1-45.644308 4.484923z m0.836923-444.636308c-13.299692-0.049231-26.702769 1.303385-39.992615 3.88677-54.366769 10.567385-101.362462 41.644308-132.411077 87.676307-30.951385 45.886769-42.258462 101.245538-31.689846 155.613539 10.567385 54.366769 41.667692 101.483077 87.676307 132.411077 45.886769 30.951385 101.245538 42.257231 155.613539 31.689846 54.366769-10.568615 101.361231-41.645538 132.411077-87.676308 30.951385-45.888 42.257231-101.246769 31.688615-155.613538-10.567385-54.366769-41.667692-101.483077-87.675077-132.411077-34.656-23.480615-74.633846-35.645538-115.620923-35.576616z" fill="#1C1B55" p-id="45729"></path><path d="M412.8 727.512615c-50.953846-29.538462-89.353846-80-101.415385-142.276923-22.276923-114.338462 52.430769-224.984615 166.646154-247.138461 62.276923-12.061538 123.569231 4.553846 169.969231 40.738461-42.461538-24.615385-93.661538-34.584615-145.723077-24.36923-114.215385 22.153846-188.923077 132.923077-166.646154 247.138461 9.969231 51.938462 38.4 95.753846 77.169231 125.907692z" fill="#D4F1FF" p-id="45730"></path><path d="M637.292308 663.758769c-3.446154 0-6.892308-1.230769-9.723077-3.692307l-111.507693-97.6c-2.461538-2.215385-4.184615-5.046154-4.8-8.246154l-32-164.923077c-1.6-8 3.692308-15.753846 11.692308-17.353846 8-1.6 15.753846 3.692308 17.353846 11.692307l31.138462 160 107.692308 94.276923c6.153846 5.415385 6.769231 14.646154 1.353846 20.8-3.076923 3.446154-7.138462 5.046154-11.2 5.046154z" fill="#1C1B55" p-id="45731"></path><path d="M382.084923 965.334154l33.245539-105.964308c-10.860308-4.177231-18.726154-7.227077-23.587693-8.904615-4.865231-1.800615-11.249231-4.779077-19.532307-9.169231l-66.699077 82.499692c6.56 15.042462 16.193231 26.404923 28.781538 34.216616 12.829538 7.68 28.680615 10.205538 47.790769 7.321846z" fill="#80CFF5" p-id="45732"></path><path d="M367.270154 996.023385c-18.103385 0.016-34.387692-4.340923-48.354462-12.843077-17.870769-10.952615-31.484308-26.978462-40.455384-47.602462l-3.613539-8.247384c-2.148923-5.097846-1.366154-10.913231 2.055385-15.219693l79.917538-98.972307c4.484923-5.575385 12.190769-7.076923 18.465231-3.724308l10.793846 5.780923c9.036308 4.856615 13.783385 6.785231 15.654154 7.458461 4.988308 1.796923 13.099077 4.836923 24.086154 9.133539l12.859077 4.969846c7.241846 2.825846 11.091692 10.819692 8.763077 18.166154l-40.110769 128.001231c-1.661538 5.353846-6.326154 9.334154-11.84 10.142769l-9.185231 1.428923c-6.493538 0.966154-12.876308 1.558154-19.035077 1.526154z m16.924308-16.108308z m-78.56-56.123077c6.555077 14.918154 16.196923 26.528 28.780307 34.215385 12.584615 7.689846 28.681846 10.205538 47.670154 7.326769l33.245539-105.964308c-10.737231-4.180923-18.726154-7.227077-23.587693-8.904615-4.742154-1.805538-11.377231-4.898462-19.532307-9.169231l-66.576 82.496z" fill="#1C1B55" p-id="45733"></path><path d="M309.907692 919.512615l62.153846-78.153846 12.553847 5.907693z" fill="#D4F1FF" p-id="45734"></path><path d="M832.342154 901.597538l-97.665231-107.478153c-0.451692 0.557538 3.606154-3.409231 12.025846-11.581539 8.494769-8.329846 15.937231-15.230769 22.286769-20.816l117.665231 72.824616c1.592615 16.972308-3.681231 31.987692-15.748923 44.894769-11.952 12.862769-24.830769 20.301538-38.563692 22.156307z" fill="#80CFF5" p-id="45735"></path><path d="M826.673231 932.082462c-4.163692 0.073846-8.108308-1.763692-10.916923-4.802462l-102.124308-112.534154c-0.756923-0.641231-1.44-1.44-1.966769-2.166154l-1.820308-2.48123c-0.525538-0.726154-0.978462-1.608615-1.430154-2.491077-1.243077-2.691692-1.452308-3.270154-2-4.774154-0.125538-0.345846-0.252308-0.692923-0.263384-1.083077-0.4-1.817846-0.567385-2.280615-0.715077-3.405539a9.065846 9.065846 0 0 1-0.12677-1.788307c-0.116923-4.279385-0.118154-5.719385 0.63877-9.400616a7.901538 7.901538 0 0 1 0.60923-1.924923c1.712-4.290462 2.216615-5.783385 4.056616-8.286769 0.787692-1.072 1.051077-1.430154 1.692308-2.187077l10.825846-12.716308c1.735385-2.072615 4.068923-3.576615 6.654769-4.386461 7.36-7.132308 13.928615-13.190154 19.784615-18.334769l8.252308-7.193847a14.784 14.784 0 0 1 17.559385-1.415384l133.115077 82.526769c3.923692 2.500923 6.448 6.56 6.964923 11.217231l0.706461 7.340308c2.289231 25.361231-5.832615 48.749538-23.533538 67.766153-16.683077 17.858462-35.512615 28.380308-56.068923 31.277539l-7.716923 1.107692c-0.737231 0.135385-1.399385 0.115692-2.177231 0.135385z m7.745231-15.785847z m-79.756308-100.375384l77.796923 85.634461c13.572923-1.928615 26.568615-9.409231 38.562461-22.156307 11.950769-12.864 17.225846-27.881846 15.748924-44.89477l-117.665231-72.824615c-3.995077 3.419077-8.283077 7.468308-13.067077 11.959385l10.235077 11.206153a14.861538 14.861538 0 0 1-0.646154 20.536616c-3.374769 3.323077-5.992615 5.848615-7.736615 7.531077a89.744 89.744 0 0 1-2.428308 2.324923c-0.305231 0.241231-0.610462 0.483692-0.8 0.683077z" fill="#1C1B55" p-id="45736"></path><path d="M735.190154 794.444308l96.948923 105.254154-80.436923-121.880616z" fill="#D4F1FF" p-id="45737"></path><path d="M172.571077 421.016615c-28.290462-8.793846-50.924308-32.354462-56.984615-63.524923C106.829538 312.428308 136.344615 268.825846 181.409231 260.066462c30.203077-5.870769 59.710769 5.319385 78.567384 26.855384-41.707077 35.064615-72.252308 81.750154-87.404307 134.094769z" fill="#FFF7A6" p-id="45738"></path><path d="M182.576 454.429538c-1.496615 0.040615-2.919385-0.184615-4.388923-0.652307l-14.411077-4.470154c-39.639385-12.355692-69.246769-45.342769-77.184-86.178462-11.836308-60.891077 28.167385-120.198154 89.179077-132.057846 39.265231-7.632 80.102154 6.370462 106.370461 36.371693l9.981539 11.350153c2.589538 3.006769 3.969231 6.876308 3.609846 10.833231-0.359385 3.956923-2.166154 7.568-5.293538 10.182154l-11.542154 9.640615c-37.366154 31.586462-64.430769 72.957538-77.888 119.832616l-4.206769 14.483692c-1.131077 3.856-3.657846 6.980923-7.168 8.916923a17.991385 17.991385 0 0 1-7.058462 1.747692zM197.176615 258.631385a84.329846 84.329846 0 0 0-15.746461 1.555692c-45.063385 8.759385-74.578462 52.361846-65.842462 97.304615 5.847385 30.083692 27.753846 54.412308 56.983385 63.524923 15.128615-52.465231 45.358769-98.839385 87.427692-133.974153-15.953231-18.212923-38.998154-28.403692-62.822154-28.411077z" fill="#1C1B55" p-id="45739"></path><path d="M157.292308 269.789538c-19.2 29.784615-27.323077 56.369231-24.369231 80 2.953846 23.630769 12.676923 46.276923 29.046154 68.184616-31.384615-18.461538-46.892308-43.938462-46.646154-76.676923s14.153846-56.615385 41.969231-71.507693z" fill="#FFFFFF" p-id="45740"></path><path d="M227.938462 784.004923l-43.938462-35.076923 2.092308-45.661538-43.076923-21.661539 7.630769-53.661538 24.984615 3.446153-5.046154 35.815385 41.476923 20.923077-2.215384 49.107692 33.846154 26.953846z" fill="#1C1B55" p-id="45741"></path><path d="M431.630769 287.015385c-1.230769 0-2.461538-0.246154-3.692307-0.615385L330.461538 254.769231a11.975385 11.975385 0 0 1-8.123076-10.092308c-0.492308-4.676923 1.846154-9.230769 6.030769-11.569231l108.184615-60.676923-71.630769-23.261538c-6.276923-1.969231-9.723077-8.738462-7.630769-15.015385 1.969231-6.276923 8.738462-9.723077 15.015384-7.630769l97.476923 31.630769c4.430769 1.476923 7.630769 5.415385 8.123077 10.092308 0.492308 4.676923-1.846154 9.230769-6.030769 11.569231l-108.184615 60.676923 71.630769 23.261538c6.276923 1.969231 9.723077 8.738462 7.630769 15.015385-1.723077 5.046154-6.4 8.246154-11.323077 8.246154zM534.892308 149.661538c-2.953846 0-5.784615-1.107692-8-3.076923-3.446154-3.2-4.8-8.123077-3.2-12.553846l14.646154-43.2-20.307693 8.984616c-6.030769 2.707692-13.046154 0-15.753846-6.03077s0-13.046154 6.030769-15.753846l45.046154-20.061538c4.307692-1.969231 9.353846-1.107692 12.8 2.092307 3.446154 3.2 4.8 8.123077 3.2 12.553847l-14.646154 43.2 20.307693-8.984616c6.030769-2.707692 13.046154 0 15.753846 6.030769 2.707692 6.030769 0 13.046154-6.030769 15.753847l-45.046154 20.061538c-1.476923 0.738462-3.2 0.984615-4.8 0.984615zM533.046154 748.307692l-7.876923-48.492307 29.169231-4.676923 7.876923 48.492307-29.169231 4.676923z m-66.953846-7.261538l-27.938462-9.476923 15.876923-46.4 27.938462 9.476923-15.876923 46.4z m158.4-22.153846l-28.923077-39.63077 23.876923-17.476923 28.923077 39.63077-23.876923 17.476923z m-242.461539-24.738462L361.846154 672.615385l35.815384-33.6 20.184616 21.538461-35.815385 33.6z m310.276923-43.815384L648.123077 628.923077l12.923077-26.584615 44.184615 21.415384-12.923077 26.584616zM329.846154 613.784615l-8.246154-28.307692 47.138462-13.661538 8.246153 28.307692-47.138461 13.661538z m341.415384-53.907692l-1.107692-29.538461 48.984616-1.846154 1.107692 29.538461-48.984616 1.846154zM368.738462 528l-48-10.092308 6.030769-28.923077 48 10.092308-6.030769 28.923077z m290.584615-40.369231l-14.4-25.846154 42.830769-23.876923 14.4 25.846154-42.830769 23.876923zM394.830769 460.307692l-37.661538-31.384615 18.953846-22.646154 37.661538 31.384615-18.953846 22.646154z m220.8-30.892307l-24.861538-16 26.584615-41.23077 24.861539 16-26.584616 41.23077z m-165.661538-16.984616l-19.323077-45.169231L457.846154 355.692308l19.323077 45.16923-27.2 11.569231z m99.938461-14.4l-29.415384-2.461538 4.184615-48.861539 29.415385 2.461539-4.184616 48.861538z" fill="#1C1B55" p-id="45742"></path></svg>