<?xml version="1.0" standalone="no"?><!DOCTYPE svg PUBLIC "-//W3C//DTD SVG 1.1//EN" "http://www.w3.org/Graphics/SVG/1.1/DTD/svg11.dtd"><svg t="1678796439451" class="icon" viewBox="0 0 1024 1024" version="1.1" xmlns="http://www.w3.org/2000/svg" p-id="4670" xmlns:xlink="http://www.w3.org/1999/xlink" width="200" height="200"><path d="M468.5 202.9S443 388.2 629 380.9c0.1 0 52.9-198.5-160.5-178z" fill="#3ACC88" p-id="4671"></path><path d="M618.5 390.5c-52.3 0-92.8-15.4-120.5-45.9-50.2-55.3-39.3-139.4-38.8-142.9 0.6-4.3 4.1-7.6 8.4-8 67.8-6.6 117 7.8 146.5 42.6 47.5 56.1 24.9 143.4 24 147.1-1.1 4-4.6 6.8-8.7 6.9-3.7 0.1-7.3 0.2-10.9 0.2z m-141.4-179c-1.3 20.7-1.5 80.5 34.8 120.5 24.5 26.9 61.3 40.2 109.5 39.7 4-20.5 12.5-83.2-21.7-123.5-24.1-28.5-65.4-40.9-122.6-36.7z" fill="#603813" p-id="4672"></path><path d="M803.7 204.1s-186.6-13.7-167.5 171.5c0 0 201.5 40.2 167.5-171.5z" fill="#3ACC88" p-id="4673"></path><path d="M673.1 388.1c-21.5 0-37.1-3-38.7-3.3-4-0.8-7.1-4.1-7.5-8.2-5.9-57.3 6.6-102.4 37.3-134 52-53.6 136.6-48.1 140.2-47.8 4.3 0.3 7.9 3.6 8.5 7.8 10.8 67.2-0.4 117.3-33.2 148.9-31.3 30.2-75.3 36.6-106.6 36.6z m-28.2-20.6c20.8 2.7 83.9 7.2 121.9-29.5 26.9-26 36.6-67.9 28.8-124.7-20.8 0-80.5 3.6-118 42.4-25.4 26.1-36.3 63.7-32.7 111.8z" fill="#603813" p-id="4674"></path><path d="M335.6 616.4m-177.7 0a177.7 177.7 0 1 0 355.4 0 177.7 177.7 0 1 0-355.4 0Z" fill="#FBB03B" p-id="4675"></path><path d="M335.6 803.5c-103.1 0-187-83.9-187-187s83.9-187 187-187 187 83.9 187 187-83.9 187-187 187z m0-355.4c-92.8 0-168.3 75.5-168.3 168.3 0 92.8 75.5 168.3 168.3 168.3 92.8 0 168.3-75.5 168.3-168.3 0-92.8-75.5-168.3-168.3-168.3z" fill="#603813" p-id="4676"></path><path d="M642 598.5m-224.1 0a224.1 224.1 0 1 0 448.2 0 224.1 224.1 0 1 0-448.2 0Z" fill="#3ACC88" p-id="4677"></path><path d="M642 832c-128.7 0-233.4-104.7-233.4-233.4S513.3 365.1 642 365.1s233.4 104.7 233.4 233.4S770.7 832 642 832z m0-448.2c-118.4 0-214.7 96.3-214.7 214.7S523.6 813.3 642 813.3 856.7 717 856.7 598.6 760.4 383.8 642 383.8z" fill="#603813" p-id="4678"></path><path d="M359.1 525.1c-1.4 0-2.9-0.3-4.2-1l-23.5-11.9c-4.6-2.3-6.5-8-4.1-12.6 2.3-4.6 7.9-6.5 12.6-4.1l23.5 11.9c4.6 2.3 6.5 8 4.1 12.6-1.7 3.3-5 5.1-8.4 5.1z" fill="#603813" p-id="4679"></path></svg>