<?xml version="1.0" standalone="no"?><!DOCTYPE svg PUBLIC "-//W3C//DTD SVG 1.1//EN" "http://www.w3.org/Graphics/SVG/1.1/DTD/svg11.dtd"><svg t="1678796760949" class="icon" viewBox="0 0 1024 1024" version="1.1" xmlns="http://www.w3.org/2000/svg" p-id="26149" xmlns:xlink="http://www.w3.org/1999/xlink" width="200" height="200"><path d="M0 0h1024v1024H0z" fill="#FFFFFF" p-id="26150"></path><path d="M355.181714 694.857143c85.845333-1.194667 160.231619 56.05181 191.536762 84.187428a20.74819 20.74819 0 0 1 0.414476 30.890667c-30.524952 28.964571-103.326476 88.210286-189.19619 89.356191-85.820952 1.170286-160.207238-56.07619-191.536762-84.21181a20.74819 20.74819 0 0 1-0.414476-30.866286c30.549333-28.988952 103.326476-88.210286 189.19619-89.380571z" fill="#30BE57" p-id="26151"></path><path d="M174.372571 793.063619a8.582095 8.582095 0 0 0 0.170667 12.970667c31.012571 27.843048 102.326857 82.16381 183.247238 81.066666 80.896-1.097143 150.723048-57.344 180.955429-86.016a8.582095 8.582095 0 0 0-0.170667-12.970666c-30.98819-27.867429-102.326857-82.16381-183.222857-81.091048-80.920381 1.097143-150.747429 57.344-180.97981 86.040381z m-16.115809 31.085714a32.938667 32.938667 0 0 1-0.658286-48.761904c30.841905-29.305905 106.617905-91.501714 197.412572-92.745143 90.794667-1.219048 168.228571 58.904381 199.875047 87.332571 14.57981 13.116952 14.872381 35.303619 0.658286 48.786286-30.866286 29.281524-106.642286 91.501714-197.436952 92.720762-90.794667 1.219048-168.228571-58.88-199.850667-87.332572z" fill="#0E5C24" p-id="26152"></path><path d="M689.590857 694.857143c85.845333-1.194667 160.231619 56.05181 191.561143 84.187428a20.74819 20.74819 0 0 1 0.414476 30.890667c-30.549333 28.964571-103.350857 88.210286-189.19619 89.356191-85.845333 1.170286-160.231619-56.07619-191.561143-84.21181a20.74819 20.74819 0 0 1-0.414476-30.866286c30.549333-28.988952 103.350857-88.210286 189.19619-89.380571z" fill="#30BE57" p-id="26153"></path><path d="M508.781714 793.063619a8.582095 8.582095 0 0 0 0.195048 12.970667c30.98819 27.843048 102.326857 82.16381 183.222857 81.066666 80.920381-1.097143 150.747429-57.344 180.97981-86.016a8.582095 8.582095 0 0 0-0.195048-12.970666c-30.98819-27.867429-102.326857-82.16381-183.222857-81.091048-80.920381 1.097143-150.747429 57.344-180.97981 86.040381z m-16.091428 31.085714a32.938667 32.938667 0 0 1-0.682667-48.761904c30.866286-29.305905 106.617905-91.501714 197.412571-92.745143 90.794667-1.219048 168.228571 58.904381 199.875048 87.332571 14.57981 13.116952 14.872381 35.303619 0.658286 48.786286-30.866286 29.281524-106.617905 91.501714-197.412572 92.720762-90.819048 1.219048-168.228571-58.88-199.875047-87.332572z" fill="#0E5C24" p-id="26154"></path><path d="M170.666667 517.241905C170.666667 335.189333 411.721143 121.904762 524.190476 121.904762 636.65981 121.904762 877.714286 335.189333 877.714286 517.241905c0 182.076952-153.697524 323.900952-353.52381 278.918095C324.36419 841.142857 170.666667 699.343238 170.666667 517.266286z" fill="#FF9898" p-id="26155"></path><path d="M182.857143 517.241905c0 174.713905 146.895238 310.174476 338.651428 267.044571l2.681905-0.609524 2.681905 0.609524c191.73181 43.154286 338.651429-92.330667 338.651429-267.044571 0-86.25981-57.58781-182.150095-131.120762-257.414095-36.498286-37.376-76.361143-69.046857-113.761524-91.282286C582.89981 146.115048 549.059048 134.095238 524.190476 134.095238c-24.868571 0-58.709333 12.01981-96.451047 34.450286-37.400381 22.235429-77.263238 53.881905-113.761524 91.282286C240.444952 335.09181 182.857143 430.982095 182.857143 517.241905z m341.333333 291.425524c-206.57981 44.909714-365.714286-102.814476-365.714286-291.425524 0-95.792762 62.927238-197.558857 138.044953-274.456381 37.790476-38.692571 79.311238-71.728762 118.735238-95.183238C454.363429 124.342857 492.78781 109.714286 524.190476 109.714286c31.402667 0 69.851429 14.628571 108.934095 37.888 39.424 23.454476 80.944762 56.490667 118.735239 95.183238 75.093333 76.897524 138.044952 178.663619 138.044952 274.456381 0 188.611048-159.134476 336.335238-365.714286 291.425524z" fill="#8A3A3A" p-id="26156"></path><path d="M511.024762 116.784762a12.190476 12.190476 0 0 1 10.800762 13.409524 22.235429 22.235429 0 0 1-3.535238 9.386666c-1.487238 2.340571-3.364571 4.681143-5.266286 6.875429-2.681905 3.096381-6.168381 6.729143-9.947429 10.703238l-4.510476 4.754286a320.365714 320.365714 0 0 0-39.399619 49.737143c-27.477333 43.471238-53.540571 111.104-46.275047 216.502857a12.190476 12.190476 0 1 1-24.332191 1.657905c-7.606857-110.616381 19.772952-183.393524 49.980952-231.180191a344.600381 344.600381 0 0 1 42.300953-53.467429l5.071238-5.339428c3.559619-3.730286 6.41219-6.704762 8.704-9.337905a35.59619 35.59619 0 0 0 3.072-3.925333l0.097524-0.170667a12.190476 12.190476 0 0 1 13.238857-9.606095z m-13.04381 9.264762l-0.048762 0.048762 0.048762-0.048762z" fill="#8A3A3A" p-id="26157"></path><path d="M265.898667 524.409905a12.190476 12.190476 0 0 1 14.262857 9.679238c4.87619 25.575619 19.017143 66.169905 45.299809 103.350857 26.233905 37.059048 64 69.973333 116.150857 82.115048a12.190476 12.190476 0 0 1-5.510095 23.747047c-59.562667-13.872762-101.936762-51.370667-130.535619-91.794285-28.525714-40.301714-43.885714-84.21181-49.347047-112.835048a12.190476 12.190476 0 0 1 9.679238-14.262857z" fill="#FFC9C9" p-id="26158"></path></svg>