<?xml version="1.0" standalone="no"?><!DOCTYPE svg PUBLIC "-//W3C//DTD SVG 1.1//EN" "http://www.w3.org/Graphics/SVG/1.1/DTD/svg11.dtd"><svg t="1678720581337" class="icon" viewBox="0 0 1024 1024" version="1.1" xmlns="http://www.w3.org/2000/svg" p-id="8572" xmlns:xlink="http://www.w3.org/1999/xlink" width="200" height="200"><path d="M511.8 440.1c-37.6 29.6-98.1 40.6-148.8-2-67.4-56.6-65.5-235-58.1-315.3 45.2 7.8 202.7 45.6 247.1 193.9 16.6 54.6-9.9 99.5-40.2 123.4z" fill="#36B474" p-id="8573"></path><path d="M489.5 454.9c4.4-2.7 8.6-5.6 12.5-8.6 30.3-23.9 56.7-69 40.4-123.4C499.1 179 349.6 139.4 299.7 130l189.8 324.9z" fill="#229456" p-id="8574"></path><path d="M350.1 480.8c46.8 39.2 99.2 43.3 141.8 28.3 6.9 15.7-3-48.4 1.5-21.6 1.7 10.5 10 18.7 18.7 18.7 1.7 0 3.5-0.4 5.1-1 5.6-2.5 8.5-9.5 7.2-17.5-5.6-32.6 2.6 27.2-5.6 8.9 5.3-3.3 10.6-6.8 15.3-10.5 48.6-38.5 67.4-100.4 48.8-161.6-25.5-84.4-84.6-150.4-171.2-191.2-63.6-29.9-119.3-35.8-121.6-36-7-0.7-12.8 4.3-13.7 12.3-1.1 11.4-32.4 281.9 73.7 371.2z m145.5-53.2c-31.1 24.6-81.3 33.7-123.2-1.7-55.8-47-54.3-194.7-48.1-261.3 37.5 6.5 168 37.8 204.9 160.6 13.3 45.1-8.5 82.4-33.6 102.4z" fill="#333333" p-id="8575"></path><path d="M598.1 498.7c-32.2-35.4-47.3-95.1-8.3-148.6 51.8-71.2 229.9-81.6 310.5-79.7-4.7 45.6-31.5 205.3-176.4 259.9-53.3 20.3-99.9-3-125.8-31.6z" fill="#36B474" p-id="8576"></path><path d="M581.8 477.4c3 4.2 6.2 8.2 9.4 11.9 25.9 28.6 72.7 51.8 125.9 31.7 140.6-53.1 169.8-205 175.7-255.4l-311 211.8z" fill="#229456" p-id="8577"></path><path d="M546.3 340.2c-35.9 49.4-36.3 102-18.5 143.4-15.2 8 48.1-6.4 21.6 0-10.3 2.4-18 11.3-17.4 20 0.1 1.7 0.7 3.5 1.4 5 2.9 5.4 10 7.8 17.9 6 32.1-7.8-27 4.4-9.3-4.9 3.6 5.1 7.5 10.1 11.5 14.5 41.8 45.8 104.8 60.3 164.6 37.5 82.4-31.2 144.2-94.8 178.9-184 25.5-65.5 27.5-121.5 27.6-123.8 0.2-7-5.2-12.4-13.2-12.8-11.3-0.4-283.3-12.9-365.1 99.1z m63.2 141.5c-26.7-29.4-39.2-78.8-6.8-123 43-58.9 190.5-67.6 257.3-66-3.9 37.8-26.1 170.2-146 215.5-44.2 16.3-82.9-2.9-104.5-26.5z" fill="#333333" p-id="8578"></path><path d="M466.4 515.3m-199.3 0a199.3 199.3 0 1 0 398.6 0 199.3 199.3 0 1 0-398.6 0Z" fill="#5998D8" p-id="8579"></path><path d="M466.4 731.9c-57.9 0-112.2-22.5-153.2-63.4-40.9-40.9-63.4-95.3-63.4-153.2s22.5-112.2 63.4-153.2c40.9-40.9 95.3-63.4 153.2-63.4 57.9 0 112.2 22.5 153.2 63.4C660.5 403 683 457.4 683 515.3s-22.5 112.2-63.4 153.2c-41 40.9-95.3 63.4-153.2 63.4z m0-398.6c-100.4 0-182 81.6-182 182s81.6 182 182 182 182-81.6 182-182-81.6-182-182-182z" fill="#333333" p-id="8580"></path><path d="M491.9 486.1c-2.2 0-4.4-0.7-6.3-1.9l-14.3-8.9-14.3 8.9c-2 1.2-4.1 1.9-6.3 1.9-2.3 0-4.5-0.7-6.4-2-3.8-2.5-5.9-7.1-5.2-11.5l3.2-21.9-13.1-15.2c-2.7-3.3-3.6-7.7-2.2-11.6 1.4-4 4.9-7 9.1-7.6l16.5-2.8 7.7-18.7c1.9-4.4 6.1-7.3 10.9-7.3s9 2.8 10.9 7.3l7.7 18.7 16.5 2.8c4.1 0.8 7.6 3.6 9.1 7.6 1.4 4 0.7 8.5-2.2 11.6l-13.1 15.2 3.2 21.9c0.7 4.6-1.4 9-5.2 11.5-1.7 1.4-3.9 2-6.2 2z" fill="#454A57" p-id="8581"></path><path d="M471.4 399.1l10.2 24.8 23 4-16.6 19.3 3.9 27.2-20.6-12.8-20.5 12.7 3.9-27.2-16.7-19.3 23-4 10.4-24.7m0-23.6c-9.6 0-18.2 5.8-21.8 14.6l-5.3 12.7-10.1 1.7c-8.4 1.4-15.4 7.3-18.2 15.2-2.8 8.1-1.2 16.9 4.4 23.4l9.6 11.1-2.4 16.7c-1.3 9.1 2.8 18.2 10.5 23.2 3.9 2.5 8.4 3.8 12.8 3.8s8.7-1.2 12.5-3.6l8.1-5 8.1 5c3.8 2.4 8.2 3.6 12.5 3.6 4.5 0 8.9-1.3 12.8-3.8 7.7-5 11.8-14 10.5-23.2l-2.4-16.7 9.6-11.1c5.6-6.4 7.2-15.4 4.4-23.4-2.8-8.1-9.8-13.8-18.2-15.2l-10.1-1.7-5.3-12.7c-3.9-8.9-12.5-14.6-22-14.6z" fill="#454A57" p-id="8582"></path><path d="M557.100123 878.158792a179.3 179.3 0 1 0 166.42631-317.64169 179.3 179.3 0 1 0-166.42631 317.64169Z" fill="#5998D8" p-id="8583"></path><path d="M791.6 632.5c1.8 11.5 2.8 23.2 2.8 35.2 0 121.8-98.3 220.5-219.9 221.3 19 6.8 39.4 10.6 60.8 10.6 99 0 179.3-80.3 179.3-179.3 0-31.9-8.4-61.9-23-87.8z" fill="#477FAD" p-id="8584"></path><path d="M640.1 914.3c-31.1 0-61.9-7.5-90.2-22.4-95.2-49.9-132-167.9-82.2-263 24.2-46.1 64.8-80 114.5-95.6 49.7-15.5 102.4-10.8 148.5 13.4 95.2 49.9 132 167.9 82.2 263-24.2 46.1-64.8 80-114.5 95.6-19.1 6-38.8 9-58.3 9z m-144.8-271c-41.9 80-10.9 179.1 69.1 221 38.7 20.3 83.1 24.3 124.8 11.3 41.8-13 75.9-41.6 96.2-80.3 41.9-80 10.9-179.1-69.1-221-38.7-20.3-83-24.3-124.8-11.3-41.7 13.1-75.9 41.6-96.2 80.3z" fill="#333333" p-id="8585"></path><path d="M672.8 706.7c-1.7-0.9-3.2-2.3-4.3-4.1l-7.6-13.1-15.1 1.2c-2.1 0.1-4.1-0.3-5.8-1.2-1.8-1-3.3-2.4-4.3-4.2-2-3.6-1.7-8.1 0.7-11.4l11.7-16.1-4-17.6c-0.8-3.7 0.4-7.7 3.1-10.2 2.8-2.6 6.8-3.5 10.5-2.3l14.4 4.7 14-11.7c3.3-2.7 7.9-3.3 11.7-1.3s6 6 5.6 10.4l-1.7 18.1 12 9.2c3 2.3 4.6 6 4.1 9.9-0.6 3.8-3 7-6.6 8.4l-16.8 6.7-6.6 18.8c-1.4 3.9-4.9 6.6-9 7-2.3 0.2-4.2-0.3-6-1.2z" fill="#454A57" p-id="8586"></path><path d="M692.8 628.8l-2.2 24 16.6 12.8-21.3 8.4-8.2 23.3-11-18.8-21.6 1.6 14.5-20-5.2-22.3 20 6.4 18.4-15.4m9.8-18.8c-7.6-4-16.9-3-23.4 2.5l-9.6 7.9-8.8-2.8c-7.3-2.4-15.3-0.6-20.8 4.6-5.6 5.2-8 12.9-6.3 20.5l3 12.8-8.9 12.3c-4.9 6.7-5.3 15.7-1.4 22.8 2.1 3.6 5.1 6.5 8.6 8.4 3.5 1.8 7.4 2.7 11.5 2.4l8.5-0.6 4.3 7.4c2 3.5 5 6.3 8.5 8.1 3.6 1.9 7.7 2.7 11.8 2.3 8.2-0.8 15.2-6.3 18-14.1l5-14.3 12.3-4.8c7.1-2.8 12.1-9.2 13.2-16.8s-2-15.1-8.1-19.7l-7.3-5.6 1.1-12.4c0.8-8.7-3.6-16.9-11.2-20.9z" fill="#454A57" p-id="8587"></path><path d="M277.3 690.2m-179.3 0a179.3 179.3 0 1 0 358.6 0 179.3 179.3 0 1 0-358.6 0Z" fill="#5998D8" p-id="8588"></path><path d="M429.9 606.4c1.8 11.5 2.8 23.2 2.8 35.2 0 121.8-98.3 220.5-219.9 221.3 19 6.8 39.4 10.6 60.8 10.6 99 0 179.3-80.3 179.3-179.3 0-31.9-8.4-61.8-23-87.8z" fill="#477FAD" p-id="8589"></path><path d="M277.3 885.1c-107.4 0-194.9-87.4-194.9-194.9 0-107.4 87.4-194.9 194.9-194.9s194.9 87.4 194.9 194.9c0 107.4-87.5 194.9-194.9 194.9z m0-358.6c-90.3 0-163.7 73.5-163.7 163.7S187 853.9 277.3 853.9 441 780.5 441 690.2s-73.4-163.7-163.7-163.7z" fill="#333333" p-id="8590"></path><path d="M300.2 663.9c-2 0-3.9-0.6-5.7-1.7l-12.8-8-12.8 8c-1.8 1.1-3.7 1.7-5.7 1.7-2.1 0-4-0.6-5.8-1.8-3.4-2.3-5.3-6.4-4.7-10.4l2.8-19.7-11.8-13.7c-2.4-2.9-3.2-7-2-10.5 1.3-3.6 4.4-6.3 8.2-6.9l14.9-2.5 7-16.8c1.7-3.9 5.5-6.6 9.8-6.6s8.1 2.5 9.8 6.6l7 16.8 14.9 2.5c3.7 0.7 6.9 3.2 8.2 6.9 1.3 3.6 0.6 7.6-2 10.5L307.7 632l2.8 19.7c0.6 4.1-1.3 8.1-4.7 10.4-1.6 1.3-3.5 1.8-5.6 1.8z" fill="#454A57" p-id="8591"></path><path d="M281.8 585.7L291 608l20.7 3.6-15 17.3 3.5 24.5-18.5-11.6-18.4 11.5 3.5-24.5-15-17.3 20.7-3.6 9.3-22.2m0-21.3c-8.6 0-16.4 5.2-19.6 13.1l-4.8 11.5-9.1 1.6c-7.5 1.3-13.8 6.6-16.4 13.7-2.5 7.2-1.1 15.2 3.9 21.1l8.6 10-2.2 15c-1.2 8.2 2.5 16.4 9.4 20.9 3.5 2.3 7.5 3.4 11.6 3.4 3.9 0 7.8-1.1 11.3-3.2l7.2-4.5 7.2 4.5c3.4 2.2 7.3 3.2 11.3 3.2s8-1.2 11.6-3.4c7-4.5 10.6-12.6 9.4-20.9l-2.2-15 8.6-10c5-5.8 6.5-13.8 3.9-21.1s-8.8-12.4-16.4-13.7L306 589l-4.8-11.5c-3.1-7.9-10.9-13.1-19.4-13.1z" fill="#454A57" p-id="8592"></path><path d="M136.6 684.4c-0.6 0-1.1-0.1-1.7-0.2-4.4-0.9-7.2-5.2-6.2-9.6 0.5-2.2 12.1-54.6 62.2-92.5 3.6-2.7 8.7-2 11.4 1.6 2.7 3.6 2 8.7-1.6 11.4-45.4 34.3-56.1 82.4-56.2 82.9-0.8 3.8-4.1 6.4-7.9 6.4z" fill="#FFFFFF" p-id="8593"></path><path d="M222.1 568.8m-9.1 0a9.1 9.1 0 1 0 18.2 0 9.1 9.1 0 1 0-18.2 0Z" fill="#FFFFFF" p-id="8594"></path><path d="M321.2 465.5c-0.9 0-1.9-0.2-2.8-0.5-4.2-1.6-6.3-6.2-4.8-10.4 0.8-2.1 19.9-52.3 74.9-82.5 3.9-2.2 8.9-0.7 11 3.2 2.2 3.9 0.7 8.9-3.2 11-49.5 27.2-67.3 73.5-67.5 73.9-1.2 3.3-4.3 5.3-7.6 5.3z" fill="#FFFFFF" p-id="8595"></path><path d="M420.041768 372.273591a9.1 9.1 0 1 0 2.628226-18.009232 9.1 9.1 0 1 0-2.628226 18.009232Z" fill="#FFFFFF" p-id="8596"></path><path d="M504.1 720.6c-0.4 0-0.7 0-1.1-0.1-4.4-0.6-7.5-4.7-6.9-9.1 0.3-2.2 7.9-55.4 55.1-96.9 3.4-3 8.5-2.6 11.4 0.7 3 3.4 2.6 8.5-0.7 11.4-42.6 37.6-49.7 86.4-49.7 86.9-0.6 4.2-4.1 7.1-8.1 7.1z" fill="#FFFFFF" p-id="8597"></path><path d="M590.395894 606.256189a9.1 9.1 0 1 0 2.628226-18.009232 9.1 9.1 0 1 0-2.628226 18.009232Z" fill="#FFFFFF" p-id="8598"></path></svg>