<?xml version="1.0" standalone="no"?><!DOCTYPE svg PUBLIC "-//W3C//DTD SVG 1.1//EN" "http://www.w3.org/Graphics/SVG/1.1/DTD/svg11.dtd"><svg t="1680258957060" class="icon" viewBox="0 0 1024 1024" version="1.1" xmlns="http://www.w3.org/2000/svg" p-id="5819" xmlns:xlink="http://www.w3.org/1999/xlink" width="200" height="200"><path d="M472.96 96.96A416 416 0 0 0 192 775.56l281.08-281.08z" fill="#FF8888" p-id="5820"></path><path d="M472.96 270.52a246.04 246.04 0 0 0-152.6 376.56l152.6-152.6z" fill="#F97171" p-id="5821"></path><path d="M192 783.56h-0.4a8 8 0 0 1-5.8-2.92 424 424 0 0 1 286.4-691.64 8 8 0 0 1 8.76 8v397.52a8 8 0 0 1-2.36 5.64L197.52 781.2a8 8 0 0 1-5.52 2.36z m272.96-677.72A408 408 0 0 0 192.52 763.6l272.44-272.44z" fill="#2FB1EA" p-id="5822"></path><path d="M927.04 471.04a416 416 0 0 0-374.08-374.08v374.08z" fill="#90FC95" p-id="5823"></path><path d="M768.44 471.04a246.72 246.72 0 0 0-215.48-204.64v204.64z" fill="#52E355" p-id="5824"></path><path d="M927.04 479.04h-374.08a8 8 0 0 1-8-8V96.96a8 8 0 0 1 8.76-8 424 424 0 0 1 381.28 381.28 8 8 0 0 1-8 8.76z m-366.08-16h357.2a408 408 0 0 0-357.2-357.2z" fill="#2FB1EA" p-id="5825"></path><path d="M248.44 832a416 416 0 0 0 529.04 0l-264.52-264.4z" fill="#A4ECFF" p-id="5826"></path><path d="M374.92 705.64a245.52 245.52 0 0 0 286.6 10.36l-148.56-148.4z" fill="#6DD0FC" p-id="5827"></path><path d="M512.96 935.04a424.64 424.64 0 0 1-269.6-96.76 8 8 0 0 1-0.56-12l264.52-264.52a8 8 0 0 1 11.32 0l264.52 264.52a8 8 0 0 1-0.56 12 424.64 424.64 0 0 1-269.64 96.76zM260.4 831.48a408 408 0 0 0 505.12 0l-252.56-252.56z" fill="#2FB1EA" p-id="5828"></path><path d="M834.04 775.56a414.08 414.08 0 0 0 93-224.52h-317.52z" fill="#FFFFFF" p-id="5829"></path><path d="M609.52 551.04L720 661.6a245.08 245.08 0 0 0 48.32-110.56z" fill="#CBECF9" p-id="5830"></path><path d="M834.04 783.56a8 8 0 0 1-5.64-2.36L604 556.68a8 8 0 0 1 5.64-13.64h317.52a8 8 0 0 1 8 8.76 421.28 421.28 0 0 1-94.8 228.84 8 8 0 0 1-5.8 2.92z m-205.2-224.52l204.56 204.56a405.16 405.16 0 0 0 84.72-204.56z" fill="#2FB1EA" p-id="5831"></path><path d="M525.48 511.04m-214.24 0a214.24 214.24 0 1 0 428.48 0 214.24 214.24 0 1 0-428.48 0Z" fill="#FFC444" p-id="5832"></path><path d="M525.48 482.32m-185.52 0a185.52 185.52 0 1 0 371.04 0 185.52 185.52 0 1 0-371.04 0Z" fill="#FFE76E" p-id="5833"></path><path d="M525.48 733.28a222.24 222.24 0 1 1 222.24-222.24 222.48 222.48 0 0 1-222.24 222.24z m0-428.48a206.24 206.24 0 1 0 206.24 206.24 206.48 206.48 0 0 0-206.24-206.24z" fill="#2FB1EA" p-id="5834"></path><path d="M552.28 626.84H452.8a24 24 0 1 1 0-48h99.44a21.88 21.88 0 1 0 0-43.8h-53.52a69.88 69.88 0 1 1 0-139.8h99.44a24 24 0 0 1 0 48h-99.44a21.88 21.88 0 1 0 0 43.8h53.56a69.88 69.88 0 1 1 0 139.8z" fill="#2FB1EA" p-id="5835"></path><path d="M525.48 443.24a24 24 0 0 1-24-24V373.36a24 24 0 1 1 48 0v45.88a24 24 0 0 1-24 24zM525.48 672.72a24 24 0 0 1-24-24v-45.88a24 24 0 0 1 48 0v45.88a24 24 0 0 1-24 24z" fill="#2FB1EA" p-id="5836"></path><path d="M814 108m-20 0a20 20 0 1 0 40 0 20 20 0 1 0-40 0Z" fill="#D4FFD4" p-id="5837"></path><path d="M726 960m-16 0a16 16 0 1 0 32 0 16 16 0 1 0-32 0Z" fill="#D4FFD4" p-id="5838"></path><path d="M894 188m-12 0a12 12 0 1 0 24 0 12 12 0 1 0-24 0Z" fill="#D4FFD4" p-id="5839"></path><path d="M82 672m-8 0a8 8 0 1 0 16 0 8 8 0 1 0-16 0Z" fill="#D4FFD4" p-id="5840"></path><path d="M814 824m-4 0a4 4 0 1 0 8 0 4 4 0 1 0-8 0Z" fill="#D4FFD4" p-id="5841"></path><path d="M506 996m-20 0a20 20 0 1 0 40 0 20 20 0 1 0-40 0Z" fill="#FFBDBD" p-id="5842"></path><path d="M26 528m-16 0a16 16 0 1 0 32 0 16 16 0 1 0-32 0Z" fill="#FFBDBD" p-id="5843"></path><path d="M974 528m-12 0a12 12 0 1 0 24 0 12 12 0 1 0-24 0Z" fill="#FFBDBD" p-id="5844"></path><path d="M202 72m-8 0a8 8 0 1 0 16 0 8 8 0 1 0-16 0Z" fill="#FFBDBD" p-id="5845"></path><path d="M930 748m-4 0a4 4 0 1 0 8 0 4 4 0 1 0-8 0Z" fill="#FFBDBD" p-id="5846"></path><path d="M994 400m-20 0a20 20 0 1 0 40 0 20 20 0 1 0-40 0Z" fill="#BBF1FF" p-id="5847"></path><path d="M250 936m-16 0a16 16 0 1 0 32 0 16 16 0 1 0-32 0Z" fill="#BBF1FF" p-id="5848"></path><path d="M106 288m-12 0a12 12 0 1 0 24 0 12 12 0 1 0-24 0Z" fill="#BBF1FF" p-id="5849"></path><path d="M670 84m-8 0a8 8 0 1 0 16 0 8 8 0 1 0-16 0Z" fill="#BBF1FF" p-id="5850"></path><path d="M902 852m-4 0a4 4 0 1 0 8 0 4 4 0 1 0-8 0Z" fill="#BBF1FF" p-id="5851"></path><path d="M554 28m-20 0a20 20 0 1 0 40 0 20 20 0 1 0-40 0Z" fill="#FFF4C5" p-id="5852"></path><path d="M346 84m-16 0a16 16 0 1 0 32 0 16 16 0 1 0-32 0Z" fill="#FFF4C5" p-id="5853"></path><path d="M814 924m-12 0a12 12 0 1 0 24 0 12 12 0 1 0-24 0Z" fill="#FFF4C5" p-id="5854"></path><path d="M386 952m-8 0a8 8 0 1 0 16 0 8 8 0 1 0-16 0Z" fill="#FFF4C5" p-id="5855"></path><path d="M98 816m-4 0a4 4 0 1 0 8 0 4 4 0 1 0-8 0Z" fill="#FFF4C5" p-id="5856"></path></svg>